<?xml version="1.0" encoding="UTF-8"?>
<!-- Created with Inkscape (http://www.inkscape.org/) -->
<svg width="48mm" height="48mm" version="1.1" viewBox="0 0 48 48" xmlns="http://www.w3.org/2000/svg">
 <rect x="1.0001" y="1.0001" width="46" height="46" rx="8.3636" ry="8.3636" fill="#2a1155" stroke="#2a1155" stroke-linejoin="round" stroke-width="2.0002"/>
 <g transform="translate(.99909 1)" stroke="#a7bef1">
  <ellipse cx="13.001" cy="11" rx="10" ry="10" fill="none" stroke-width="2"/>
  <path d="m41.07 16.069a7.1682 7.1682 0 0 1-10.137 0 7.1682 7.1682 0 0 1 0-10.137 7.1682 7.1682 0 0 1 10.137-4e-7" fill-opacity="0" stroke-width="4"/>
 </g>
 <g transform="translate(.99909 1)">
  <circle cx="13.001" cy="35" r="10" fill="none" stroke="#a7bef1" stroke-width="2"/>
  <circle cx="13.001" cy="35" r="7" fill="#a7bef1"/>
  <path d="m41.069 40.068a7.1685 7.1691 0 0 1-10.138 0 7.1685 7.1691 0 0 1 0-10.139 7.1685 7.1691 0 0 1 10.138 0" fill="none" stroke="#a7bef1" stroke-width="4"/>
 </g>
 <rect x="18.615" y="18.709" width="0" height="0" rx="0" ry="0" fill="#5e2f79" stroke="#5e2f79" stroke-linejoin="round" stroke-width="4"/>
</svg>
